# xmcd
#
# Track frame offsets:
#	150
#	16762
#	36078
#	51897
#	67848
#	84740
#	98588
#	115066
#	134586
#	150333
#	166226
#	183144
#
# Disc length: 2626 seconds
#
# Revision: 1
# Processed by: cddbd v1.5.2PL0 Copyright (c) Steve Scherf et al.
# Submitted via: audiograbber 1.83.01
#
DISCID=870a400c
DTITLE=Various Artist - CB20343
DYEAR=1900
DGENRE=Karaoke
TTITLE0=vocal - Untangle My Heart
TTITLE1=vocal - I Keep Looking
TTITLE2=vocal - Since I've Seen You Last
TTITLE3=vocal - Get Over Yourself
TTITLE4=vocal - Slow Way Home, The
TTITLE5=vocal - Don't Waste My Time
TTITLE6=Brown, Shannon - Untangle My Heart
TTITLE7=Evans, Sara - I Keep Looking
TTITLE8=Janet, Joanna - Since I've Seen You Last
TTITLE9=SheDaisy - Get Over Yourself
TTITLE10=Satcher, Leslie - Slow Way Home, The
TTITLE11=Little Big Town - Don't Waste My Time
EXTD=
EXTT0=
EXTT1=
EXTT2=
EXTT3=
EXTT4=
EXTT5=
EXTT6=
EXTT7=
EXTT8=
EXTT9=
EXTT10=
EXTT11=
PLAYORDER=
